<?xml version="1.0" standalone="no"?>
<!DOCTYPE svg PUBLIC "-//W3C//DTD SVG 20010904//EN"
 "http://www.w3.org/TR/2001/REC-SVG-20010904/DTD/svg10.dtd">
<svg version="1.0" xmlns="http://www.w3.org/2000/svg"
 width="300.000000pt" height="169.000000pt" viewBox="0 0 300.000000 169.000000"
 preserveAspectRatio="xMidYMid meet">
<metadata>
Created by potrace 1.10, written by Peter Selinger 2001-2011
</metadata>
<g transform="translate(0.000000,169.000000) scale(0.100000,-0.100000)"
fill="#000000" stroke="none">
<path d="M1475 1560 c-4 -12 -21 -30 -38 -41 -28 -16 -29 -19 -10 -19 12 0 28
7 37 15 17 17 30 54 23 62 -3 2 -8 -5 -12 -17z"/>
<path d="M1510 1558 c0 -32 24 -58 53 -58 21 1 21 1 -3 15 -14 7 -30 26 -37
42 l-12 28 -1 -27z"/>
<path d="M1430 1467 c14 -7 29 -22 35 -35 10 -23 25 -30 25 -12 0 18 -48 60
-67 60 -14 0 -12 -3 7 -13z"/>
<path d="M1530 1460 c-11 -11 -20 -30 -19 -42 0 -23 0 -23 9 -2 4 12 21 31 36
43 19 15 22 21 10 21 -9 0 -25 -9 -36 -20z"/>
<path d="M1121 1443 c-1 -13 -10 -28 -21 -35 -26 -16 -26 -28 0 -21 21 6 36
42 27 65 -3 7 -6 3 -6 -9z"/>
<path d="M1150 1446 c0 -24 23 -46 48 -45 l27 0 -25 10 c-14 5 -31 17 -37 26
-7 9 -13 13 -13 9z"/>
<path d="M1843 1436 c-4 -8 -19 -19 -33 -25 l-25 -10 25 0 c23 -1 58 34 47 46
-3 2 -9 -2 -14 -11z"/>
<path d="M1881 1427 c-1 -21 5 -30 25 -37 37 -14 42 -12 16 6 -13 9 -27 26
-32 38 -8 19 -9 19 -9 -7z"/>
<path d="M1317 1372 c-18 -20 -23 -76 -12 -144 6 -41 5 -48 -9 -48 -9 0 -17
-3 -17 -7 -7 -38 -5 -60 6 -73 6 -8 15 -23 18 -32 4 -10 13 -15 25 -11 25 6
38 -13 22 -33 -8 -8 -11 -30 -7 -54 4 -35 3 -40 -14 -40 -11 0 -22 -6 -25 -14
-4 -10 -18 -12 -49 -8 -58 6 -95 -16 -95 -58 0 -28 -3 -30 -35 -30 -64 0 -72
-20 -67 -172 4 -147 8 -157 68 -176 43 -13 38 -5 -14 19 l-37 18 40 -6 c52 -7
53 -8 61 -47 5 -29 13 -37 51 -51 43 -17 48 -17 74 -1 37 22 109 12 109 -15 0
-28 39 -49 90 -49 49 1 85 21 85 47 0 27 72 38 112 18 51 -28 122 4 130 58 5
29 11 33 58 42 44 8 40 -3 -8 -23 l-32 -12 30 6 c70 13 73 20 74 163 2 158 -3
171 -64 171 -45 0 -45 0 -45 34 0 25 -7 39 -22 50 -25 18 -93 21 -103 5 -4 -5
-18 11 -32 38 -14 26 -36 62 -49 80 -26 34 -19 43 33 43 15 0 23 3 20 7 -4 3
1 15 10 25 17 19 25 68 10 68 -4 0 -5 5 -2 10 3 6 -1 10 -11 10 -13 0 -15 6
-9 28 16 62 16 110 1 145 -8 20 -20 37 -26 37 -16 0 -81 -28 -98 -43 -26 -21
-113 -17 -152 9 -52 33 -74 37 -93 16z m88 -27 c43 -32 137 -32 180 0 17 13
41 26 55 30 22 6 21 4 -6 -13 -18 -11 -39 -31 -48 -43 -15 -22 -15 -24 1 -30
25 -9 49 -38 68 -79 8 -19 21 -43 28 -53 10 -14 9 -19 -3 -27 -8 -5 -18 -6
-22 -4 -4 3 -8 0 -8 -5 0 -6 10 -11 23 -11 20 -1 21 -1 4 -11 -10 -6 -27 -9
-38 -6 -10 3 -17 1 -14 -3 7 -11 -98 -50 -135 -50 -36 0 -142 39 -135 49 2 5
-6 6 -19 4 -13 -3 -27 0 -30 6 -4 6 0 11 8 11 9 0 16 5 16 10 0 6 -6 10 -14
10 -24 0 -27 16 -7 42 19 24 25 46 21 83 -1 20 -1 20 -10 0 -7 -16 -9 -11 -9
20 -1 49 8 85 21 85 11 0 58 -50 58 -62 0 -5 -4 -6 -10 -3 -5 3 -10 1 -10 -5
0 -6 -5 -8 -12 -4 -7 4 -8 3 -4 -4 9 -15 56 6 56 25 0 7 -19 27 -42 44 -32 23
-37 29 -18 24 14 -4 39 -17 55 -30z m269 -7 c11 -41 7 -96 -6 -94 -25 3 -39
18 -33 34 3 9 3 13 -1 10 -3 -4 -13 0 -22 9 -15 14 -14 18 12 39 34 30 42 30
50 2z m-238 -317 c42 -15 55 -16 74 -6 47 25 103 -8 136 -81 24 -52 31 -108
16 -130 -4 -6 -17 -14 -29 -18 -17 -6 -23 -3 -23 8 0 9 4 16 10 16 11 0 44 59
37 67 -3 2 -8 -4 -11 -15 -4 -11 -18 -27 -31 -36 -14 -9 -25 -23 -25 -31 0 -9
-9 -15 -21 -15 -16 0 -19 4 -14 18 4 9 10 26 13 37 2 11 10 26 15 33 15 19 19
50 7 57 -6 3 -10 2 -10 -4 0 -6 -12 -27 -26 -48 -14 -21 -23 -45 -21 -54 5
-18 -7 -42 -39 -82 -25 -31 -34 -34 -34 -12 0 8 3 15 8 15 9 0 7 114 -3 130
-4 6 -13 9 -20 6 -14 -5 -55 28 -55 45 0 6 -4 7 -10 4 -5 -3 -10 1 -10 10 0 8
-5 24 -12 34 -9 15 -8 24 5 45 10 14 19 26 20 26 1 0 25 -8 53 -19z m-86 -113
c0 -6 -7 -19 -16 -29 -9 -10 -17 -31 -18 -48 -1 -16 -10 -39 -20 -50 -47 -52
34 -116 159 -128 36 -3 68 -10 71 -14 3 -5 32 -9 65 -9 34 0 58 4 55 9 -4 5 2
7 13 4 22 -6 96 38 110 65 6 10 11 37 12 60 3 47 -17 77 -68 99 -37 15 -41 22
-15 22 9 0 32 3 50 7 22 4 40 1 59 -11 l26 -18 -22 -11 -22 -12 23 -21 c15
-14 39 -23 68 -25 38 -3 46 -7 48 -26 3 -18 -2 -23 -27 -28 -40 -8 -40 -29 0
-43 24 -8 30 -15 27 -33 -3 -21 -9 -23 -55 -23 -62 0 -95 -23 -73 -50 15 -18
8 -27 -37 -45 -28 -11 -36 -10 -59 5 -39 25 -122 12 -134 -21 -9 -22 -15 -24
-70 -24 -55 0 -61 2 -70 25 -5 14 -15 25 -22 26 -24 1 -62 9 -66 14 -3 3 -20
-4 -37 -15 -26 -16 -38 -18 -60 -10 -32 12 -48 13 -41 1 3 -4 19 -11 36 -14
29 -6 30 -8 30 -67 0 -33 -3 -60 -7 -60 -4 0 -22 5 -40 12 l-33 12 0 75 c0 53
4 79 15 91 14 16 14 19 -7 32 -15 9 -40 13 -70 10 -44 -4 -48 -6 -48 -31 1
-22 2 -24 11 -8 12 20 39 23 39 5 0 -9 4 -8 10 2 8 12 10 10 10 -10 0 -14 4
-31 9 -39 5 -7 6 -22 4 -32 -4 -14 -11 -17 -32 -13 -64 14 -61 9 -60 94 l1 79
34 11 c38 13 46 40 12 40 -33 0 -51 14 -46 36 2 15 14 20 48 22 28 2 53 11 67
24 21 19 21 22 6 33 -9 7 -13 17 -9 23 11 18 74 26 91 12 15 -12 46 -7 44 7
-3 17 2 23 16 23 8 0 15 -5 15 -12z m94 -113 c6 -52 0 -71 -21 -70 -14 0 -16
7 -7 29 3 7 -6 42 -20 76 -34 83 -33 89 8 49 26 -27 35 -45 40 -84z m-70 49
c5 -16 13 -39 18 -50 15 -32 1 -64 -28 -64 -31 0 -33 30 -1 31 l22 0 -22 9
c-13 5 -23 14 -23 20 0 6 5 8 11 4 6 -3 3 5 -6 19 -10 16 -14 34 -10 47 9 28
28 20 39 -16z m347 3 c24 -18 40 -54 32 -73 -4 -12 -3 -15 6 -10 8 6 8 -1 -2
-26 -32 -80 -257 -110 -257 -34 0 40 25 56 88 56 73 0 102 18 102 66 0 36 6
40 31 21z m-289 -147 c20 3 58 -11 58 -21 0 -13 -25 -11 -88 8 -50 14 -54 17
-32 23 14 4 30 3 37 -2 6 -5 17 -8 25 -8z m494 -167 c-7 -7 -88 -24 -93 -20
-2 3 -1 28 3 57 l7 52 38 -4 c22 -2 40 1 41 7 1 5 3 -12 5 -39 2 -26 2 -50 -1
-53z m-116 -33 c0 -59 0 -60 -40 -80 l-40 -20 0 65 c0 65 0 66 30 72 17 3 33
10 36 14 11 18 14 7 14 -51z m-420 23 c0 -8 5 -11 10 -8 6 4 10 -14 10 -46 l0
-51 -32 7 c-18 4 -41 8 -50 8 -10 1 -18 6 -19 12 0 5 -5 -1 -10 -14 -14 -36
-19 -21 -12 38 4 34 9 48 14 39 5 -7 9 -8 10 -3 0 6 5 -1 9 -15 7 -22 8 -19 9
16 1 39 2 40 31 36 17 -2 30 -10 30 -19z m280 -28 c0 -50 -2 -56 -26 -65 -49
-19 -64 -13 -64 25 0 44 32 90 65 93 24 2 25 -1 25 -53z m37 -47 c-2 -18 -4
-6 -4 27 0 33 2 48 4 33 2 -15 2 -42 0 -60z m-270 -30 c-2 -18 -4 -6 -4 27 0
33 2 48 4 33 2 -15 2 -42 0 -60z m113 6 l0 -64 -50 0 -50 0 0 68 0 67 50 -3
50 -4 0 -64z m17 -16 c-2 -18 -4 -4 -4 32 0 36 2 50 4 33 2 -18 2 -48 0 -65z"/>
<path d="M1380 1196 c-15 -19 -9 -56 12 -69 34 -22 66 41 36 71 -16 16 -33 15
-48 -2z"/>
<path d="M1540 1196 c-15 -19 -9 -56 12 -69 34 -22 66 41 36 71 -16 16 -33 15
-48 -2z"/>
<path d="M1470 1129 c0 -5 -5 -7 -11 -3 -7 4 -10 1 -7 -7 2 -7 15 -13 28 -13
13 0 26 6 28 13 3 8 0 11 -7 7 -6 -4 -11 -2 -11 3 0 6 -4 11 -10 11 -5 0 -10
-5 -10 -11z"/>
<path d="M1547 972 c-10 -10 -14 -22 -11 -25 4 -4 -4 -11 -18 -16 -28 -10 -54
-39 -44 -48 10 -10 59 30 80 66 21 37 17 50 -7 23z"/>
<path d="M1444 971 c7 -11 -18 -33 -27 -24 -4 3 -7 2 -7 -4 0 -20 28 -22 44
-4 20 22 20 27 0 35 -8 3 -13 2 -10 -3z"/>
<path d="M1804 762 c14 -22 -8 -64 -47 -93 -44 -32 -43 -38 3 -14 50 26 79 92
48 111 -7 4 -8 3 -4 -4z"/>
<path d="M1730 742 c0 -18 -158 -65 -189 -55 -14 4 -15 4 0 -6 22 -14 141 12
179 39 32 22 37 30 20 30 -5 0 -10 -3 -10 -8z"/>
<path d="M1798 1368 c7 -7 12 -21 13 -32 0 -20 1 -20 12 2 8 19 8 25 -4 33
-20 13 -35 11 -21 -3z"/>
<path d="M1893 1363 c-7 -3 -13 -17 -12 -31 0 -16 3 -21 6 -12 3 8 14 22 25
31 20 15 10 21 -19 12z"/>
<path d="M953 1311 c-86 -53 -43 -181 61 -181 60 0 93 28 101 84 9 55 -6 83
-50 102 -46 19 -74 18 -112 -5z m131 -22 c52 -41 9 -109 -69 -109 -51 0 -95
30 -95 65 0 59 109 87 164 44z"/>
<path d="M988 1283 c-28 -7 -33 -43 -9 -66 17 -17 26 -19 47 -12 15 6 32 18
38 28 9 15 7 22 -13 38 -23 19 -31 21 -63 12z m47 -52 c3 -5 1 -13 -5 -16 -15
-9 -43 3 -35 15 8 13 32 13 40 1z"/>
<path d="M1990 1285 c-7 -8 -20 -15 -30 -15 -10 0 -28 -9 -41 -19 -20 -16 -22
-23 -13 -39 10 -15 9 -21 -7 -30 -24 -15 -24 -39 -1 -65 12 -15 14 -21 5 -24
-7 -3 -13 -13 -13 -23 0 -22 25 -44 40 -35 6 4 15 -7 21 -25 9 -26 16 -31 38
-29 14 2 35 -2 46 -8 19 -11 48 -3 65 16 3 3 19 13 35 22 23 12 29 21 27 41
-1 14 4 31 13 38 19 16 19 34 -1 51 -9 7 -14 22 -11 37 3 16 -2 27 -14 35 -11
7 -19 17 -19 23 0 20 -45 55 -56 44 -8 -8 -15 -6 -24 5 -16 19 -44 19 -60 0z
m45 -5 c3 -5 -3 -10 -14 -10 -12 0 -21 -6 -21 -14 0 -23 23 -24 52 -3 17 12
33 17 45 13 16 -7 15 -9 -9 -22 -32 -17 -34 -26 -13 -44 12 -10 18 -9 31 4 12
13 19 14 30 5 16 -13 10 -29 -11 -29 -20 0 -30 -40 -14 -51 18 -11 26 -11 34
1 7 11 25 4 25 -9 0 -5 -16 -16 -35 -25 -22 -11 -35 -24 -35 -36 0 -11 5 -20
10 -20 6 0 10 -7 10 -15 0 -18 -12 -19 -27 -4 -15 15 -33 3 -33 -22 0 -25 -17
-25 -25 1 -6 20 -45 29 -45 10 0 -5 -4 -10 -10 -10 -5 0 -10 5 -10 12 0 20
-31 47 -47 41 -13 -5 -15 -1 -9 20 4 17 1 38 -9 57 -14 28 -14 30 6 40 16 9
19 18 14 37 -6 27 11 57 27 47 6 -4 5 -10 -3 -15 -10 -6 -8 -9 9 -9 15 0 22 6
22 20 0 28 42 51 55 30z"/>
<path d="M1962 1187 c-47 -50 -10 -137 57 -137 65 0 83 74 32 129 -35 37 -60
39 -89 8z m108 -73 c0 -28 -7 -30 -38 -8 -22 15 -31 62 -15 78 12 12 53 -42
53 -70z m-79 34 c-7 -35 -24 -41 -30 -12 -2 14 22 44 35 44 1 0 -2 -15 -5 -32z
m51 -81 c-12 -5 -33 -6 -49 -2 l-28 7 24 13 c19 10 31 10 49 2 24 -11 24 -11
4 -20z"/>
<path d="M790 1160 c-28 -40 -23 -64 15 -68 33 -4 147 -80 139 -93 -3 -5 2 -6
11 -3 11 5 18 0 22 -14 3 -11 12 -23 20 -26 8 -3 11 -10 8 -16 -9 -15 41 -12
54 3 6 8 8 17 5 20 -3 3 1 16 10 29 17 23 21 57 9 59 -5 1 -18 3 -29 4 -12 1
-64 32 -117 69 -52 36 -102 66 -110 66 -9 0 -25 -14 -37 -30z m65 10 c3 -5 -6
-21 -22 -34 -17 -15 -30 -20 -32 -13 -2 6 1 13 8 15 6 2 9 8 5 13 -3 5 -2 14
1 19 8 13 32 13 40 0z m99 -72 c45 -31 72 -56 67 -61 -5 -5 -17 -5 -29 2 -10
6 -23 7 -27 3 -5 -4 -5 -1 -1 6 4 7 0 15 -11 19 -10 3 -31 17 -46 30 -16 13
-32 21 -37 18 -10 -6 -21 20 -13 29 11 11 20 7 97 -46z m100 -90 c-16 -18 -30
-35 -32 -37 -1 -3 -8 1 -15 8 -9 10 -8 15 7 27 11 8 16 14 12 14 -4 0 -4 5 -1
10 3 6 18 10 32 10 l27 0 -30 -32z"/>
<path d="M1102 1118 c-18 -18 -14 -46 7 -58 25 -13 48 -4 56 21 12 38 -35 65
-63 37z"/>
<path d="M790 980 c-24 -18 -25 -20 -8 -47 17 -28 48 -48 33 -22 -4 8 4 2 18
-13 15 -14 36 -29 47 -33 11 -3 20 -13 20 -21 0 -8 5 -12 10 -9 6 3 10 1 10
-5 0 -6 6 -8 13 -4 6 4 9 3 4 -1 -11 -13 34 -55 59 -55 25 0 40 15 24 25 -18
11 -11 27 9 20 11 -3 22 -1 26 5 10 16 -35 61 -56 58 -22 -4 -133 70 -145 96
-12 28 -34 30 -64 6z m48 -15 c-3 -13 -1 -22 3 -19 15 9 131 -78 120 -89 -7
-7 -16 -5 -28 5 -32 28 -123 88 -132 88 -6 0 -12 4 -15 9 -4 5 3 7 14 4 14 -4
20 0 20 11 0 9 5 16 11 16 7 0 9 -10 7 -25z m200 -125 c5 -13 3 -13 -11 -1
-14 11 -20 11 -32 1 -14 -11 -14 -15 0 -37 16 -24 16 -24 -5 -13 -25 13 -35
34 -26 56 8 20 67 15 74 -6z"/>
<path d="M1984 903 c-18 -17 -24 -32 -24 -66 0 -27 6 -49 15 -57 10 -8 15 -31
15 -66 0 -61 17 -84 61 -84 28 0 29 -1 29 -49 0 -40 4 -53 22 -65 57 -40 98
-7 98 77 0 46 -4 59 -22 71 -30 22 -34 12 -6 -16 20 -20 21 -23 5 -26 -13 -3
-17 -15 -19 -55 l-1 -52 -7 55 c-6 59 -17 52 -23 -15 -3 -35 -4 -33 -5 13 -2
62 -19 69 -25 10 -3 -38 -4 -36 -5 14 -2 48 1 59 18 68 16 8 20 21 20 59 0 31
5 53 15 61 24 20 19 94 -7 123 -32 34 -118 34 -154 0z m133 -11 c23 -23 29
-54 9 -46 -12 5 -14 -2 -11 -35 2 -22 0 -43 -5 -46 -6 -4 -10 12 -10 37 -1 35
-3 40 -11 25 -6 -10 -8 -29 -5 -43 4 -14 2 -24 -4 -24 -5 0 -10 18 -10 40 0
22 -4 40 -9 40 -5 0 -8 -18 -7 -40 1 -27 -3 -40 -12 -40 -11 0 -12 10 -7 41 6
33 4 40 -6 37 -8 -3 -17 -20 -21 -39 -6 -32 -7 -31 -5 9 2 31 -1 41 -10 38 -7
-3 -13 -1 -13 4 0 6 5 10 10 10 6 0 10 5 10 11 0 5 -4 7 -10 4 -5 -3 -10 1
-10 10 0 11 5 15 15 11 8 -3 15 -1 15 4 0 25 80 20 107 -8z m-96 -199 c-5 -47
-5 -47 -11 -13 -6 38 -2 72 9 66 3 -2 4 -26 2 -53z m26 -25 c-2 -18 -4 -6 -4
27 0 33 2 48 4 33 2 -15 2 -42 0 -60z m30 0 c-2 -18 -4 -6 -4 27 0 33 2 48 4
33 2 -15 2 -42 0 -60z"/>
<path d="M2031 886 c-18 -21 21 -41 49 -26 24 13 26 26 4 34 -25 10 -41 7 -53
-8z"/>
<path d="M811 782 c-34 -53 -21 -86 35 -90 31 -2 48 -11 74 -38 33 -35 65 -42
65 -14 0 8 -7 15 -15 16 -39 3 -41 5 -38 32 2 22 8 27 32 27 16 0 31 -5 33
-12 3 -7 -3 -10 -15 -6 -24 6 -39 -14 -23 -30 8 -8 11 -8 11 0 0 6 8 9 19 6
10 -3 22 0 26 7 9 14 -22 50 -44 50 -20 1 -53 27 -74 63 -25 39 -56 35 -86
-11z m73 19 c3 -5 -1 -14 -9 -21 -8 -7 -15 -9 -15 -6 0 4 -10 2 -21 -5 -12 -6
-19 -7 -17 -2 3 4 8 16 11 26 7 18 42 24 51 8z m36 -59 c20 -16 21 -19 6 -31
-9 -7 -16 -9 -16 -3 0 5 -9 12 -20 15 -22 6 -28 37 -6 37 8 0 24 -8 36 -18z
m-67 -22 c7 -26 -19 -27 -33 -1 -7 14 -6 21 3 24 17 6 24 1 30 -23z"/>
<path d="M793 631 c-18 -15 -23 -30 -23 -66 0 -25 5 -55 10 -65 11 -21 67 -35
103 -26 20 5 22 10 19 46 -5 53 -22 52 -22 -2 0 -32 -3 -39 -10 -28 -6 8 -7
27 -4 43 3 16 1 27 -5 27 -6 0 -11 -18 -11 -41 0 -24 -4 -38 -10 -34 -5 3 -10
22 -10 41 0 22 -4 33 -10 29 -6 -4 -8 -14 -6 -23 3 -10 1 -24 -4 -32 -7 -11
-10 -2 -10 33 0 26 -4 47 -10 47 -18 0 -10 29 12 44 42 30 128 10 128 -30 0
-8 -4 -14 -10 -14 -5 0 -10 -20 -10 -45 0 -45 12 -60 24 -29 3 9 6 35 6 59 0
35 -5 48 -26 64 -33 26 -91 27 -121 2z"/>
<path d="M823 623 c-21 -8 -15 -33 11 -44 25 -12 66 2 66 21 0 20 -48 35 -77
23z"/>
<path d="M2012 524 c-12 -8 -22 -22 -22 -31 0 -9 -29 -43 -65 -75 -52 -48 -63
-63 -54 -74 6 -8 15 -14 19 -14 7 0 98 60 125 82 5 4 22 17 38 29 30 23 36 59
11 83 -19 20 -24 20 -52 0z m54 -15 c3 -6 1 -16 -5 -22 -9 -9 -11 -8 -6 6 5
12 2 17 -9 17 -19 0 -21 -21 -3 -39 10 -10 8 -11 -6 -5 -12 4 -24 -2 -38 -19
-19 -26 -108 -91 -115 -85 -1 2 26 28 62 57 35 29 64 61 64 71 0 9 3 20 7 23
10 11 41 8 49 -4z"/>
<path d="M914 459 c-19 -21 -18 -21 10 -46 23 -20 37 -24 64 -20 56 10 80 45
50 75 -21 21 -102 15 -124 -9z m123 -5 c9 -23 -13 -39 -57 -39 -44 0 -66 16
-57 39 9 23 105 23 114 0z"/>
<path d="M945 450 c-8 -12 17 -23 41 -18 10 1 19 9 22 16 5 15 -54 17 -63 2z"/>
<path d="M2132 468 c-7 -7 -12 -22 -12 -34 0 -16 -22 -41 -75 -84 -41 -34 -75
-65 -75 -70 0 -20 24 -60 36 -60 7 0 19 -2 27 -5 8 -4 29 9 51 31 20 20 36 33
36 30 0 -4 12 5 28 19 16 15 35 24 45 21 22 -5 57 27 57 53 0 10 -9 30 -20 44
-11 14 -20 32 -20 40 0 26 -56 37 -78 15z m60 -16 c-9 -7 -8 -13 8 -27 19 -17
27 -45 14 -45 -3 0 -15 11 -25 24 -11 14 -28 28 -39 31 -33 10 -23 25 18 25
22 0 32 -3 24 -8z m-26 -50 c17 -11 26 -49 14 -57 -5 -3 -10 0 -10 7 0 7 -10
19 -22 27 -21 13 -22 13 -9 -3 19 -23 -1 -45 -24 -26 -12 10 -15 10 -15 0 0
-7 -7 -10 -17 -6 -16 6 -16 6 0 -12 9 -10 17 -27 16 -38 0 -14 -2 -15 -6 -4
-3 8 -14 24 -24 36 -19 20 -19 21 6 32 19 9 32 9 48 1 l22 -10 -21 19 c-20 17
-20 19 -5 30 19 13 32 14 47 4z m-98 -84 c21 -21 13 -32 -10 -12 -13 10 -17
12 -10 4 21 -24 13 -32 -12 -13 -21 16 -22 19 -8 25 24 10 27 9 40 -4z"/>
<path d="M772 404 c-16 -11 -22 -25 -22 -54 0 -47 27 -70 83 -70 57 0 87 24
87 70 0 29 -6 41 -25 54 -31 20 -94 21 -123 0z m116 -10 c26 -18 28 -31 5 -56
-32 -36 -133 -15 -133 28 0 20 41 44 75 44 17 0 41 -7 53 -16z"/>
<path d="M804 375 c-9 -22 9 -37 37 -33 16 2 24 10 24 23 0 26 -52 35 -61 10z"/>
<path d="M1028 384 c-31 -16 -48 -32 -48 -43 0 -10 -16 -31 -35 -45 -38 -30
-43 -46 -19 -70 24 -24 45 -19 86 19 20 19 42 35 48 35 37 0 65 91 38 118 -15
15 -14 15 -70 -14z m60 -18 c2 -42 -24 -70 -40 -42 -5 9 -19 21 -31 26 -20 7
-20 9 -4 15 11 5 25 1 37 -10 23 -21 39 -13 21 9 -7 8 -10 20 -6 26 12 20 22
10 23 -24z m-65 -42 c11 -12 -14 -46 -29 -40 -9 4 -12 2 -8 -5 3 -6 -2 -19
-13 -28 -18 -17 -19 -17 -30 6 -6 12 -8 23 -4 23 5 0 20 11 35 25 28 26 38 30
49 19z"/>
<path d="M1140 330 c-11 -11 -20 -31 -20 -44 0 -17 -12 -34 -35 -52 -40 -30
-44 -55 -15 -84 25 -25 41 -25 71 1 13 11 34 29 47 40 12 10 26 19 31 19 17 0
42 39 39 62 -2 19 -8 22 -30 20 -29 -3 -36 6 -17 25 6 6 8 16 5 22 -11 18 -54
13 -76 -9z m60 1 c0 -5 -7 -12 -16 -15 -28 -11 4 -39 37 -32 22 4 27 2 22 -10
-3 -8 -18 -18 -33 -21 -16 -3 -43 -20 -61 -39 -35 -36 -48 -41 -67 -22 -9 9
-4 16 21 32 17 11 39 19 47 17 12 -2 13 0 3 10 -16 16 -17 61 -1 77 14 14 48
16 48 3z"/>
<path d="M1783 320 c6 -26 4 -29 -16 -27 -17 2 -23 -4 -25 -26 -4 -36 13 -57
46 -57 14 0 22 -3 19 -6 -8 -8 77 -74 96 -74 20 0 47 33 47 58 0 12 -17 35
-40 55 -22 19 -40 43 -40 54 0 27 -31 53 -65 53 -25 0 -27 -2 -22 -30z m61 1
c17 -18 17 -22 3 -51 -15 -30 -15 -31 4 -25 12 4 21 1 25 -9 3 -9 11 -13 17
-9 6 4 8 0 4 -9 -4 -12 -1 -14 14 -11 24 7 24 -2 2 -24 -16 -17 -19 -16 -58
24 -22 24 -49 43 -60 43 -20 0 -45 17 -45 31 0 3 10 4 23 2 12 -2 29 1 37 6
12 8 12 13 -4 30 -19 21 -19 21 1 21 11 0 28 -9 37 -19z"/>
<path d="M1290 309 c-9 -16 -8 -26 5 -46 14 -20 22 -24 46 -19 29 5 29 5 28
-43 -1 -42 -5 -51 -27 -60 -20 -10 -27 -9 -33 1 -14 22 -10 25 22 20 23 -3 30
-1 24 8 -4 6 -16 10 -26 7 -11 -3 -19 -1 -19 4 0 5 10 10 23 10 17 1 18 2 4 6
-38 10 -64 -46 -35 -75 29 -29 78 -7 78 35 0 18 6 23 25 23 20 0 25 -5 25 -24
0 -32 17 -42 39 -22 23 21 50 20 73 -1 17 -15 20 -15 28 -3 6 8 10 22 10 31 0
10 12 19 31 23 45 9 79 7 79 -3 0 -5 -8 -7 -19 -4 -10 3 -22 -1 -26 -7 -6 -9
1 -11 24 -8 38 6 39 3 2 -16 -27 -14 -29 -14 -39 7 -11 22 -11 22 -11 1 -2
-43 59 -59 82 -22 17 26 -7 68 -38 68 -18 0 -25 5 -25 18 0 20 -29 52 -46 52
-6 0 -19 -7 -30 -15 -18 -14 -17 -14 8 -4 21 9 31 9 43 -1 22 -18 19 -29 -10
-36 -14 -3 -25 -11 -26 -18 0 -6 -5 0 -11 14 -6 15 -12 20 -15 13 -7 -18 -93
-17 -93 0 0 18 -32 47 -51 47 -8 0 -3 -6 10 -13 35 -17 35 -30 2 -49 -28 -15
-29 -15 -34 2 -4 14 1 18 19 17 12 -1 23 3 23 8 0 6 -11 9 -25 8 -15 -1 -22 2
-18 9 4 7 2 8 -5 4 -8 -6 -10 0 -5 18 8 34 -10 56 -47 56 -18 0 -32 -7 -39
-21z m73 -3 c6 -15 -6 -29 -35 -39 -9 -3 -19 0 -22 9 -4 10 3 14 26 14 34 0
29 14 -7 23 -16 4 -14 5 6 6 15 0 29 -5 32 -13z m196 -125 c10 -18 6 -31 -11
-31 -5 0 -7 4 -4 9 3 5 -1 12 -10 15 -28 11 -65 6 -70 -9 -9 -21 -24 -19 -24
4 0 24 13 29 67 30 32 1 45 -4 52 -18z"/>
<path d="M1642 318 c-17 -17 -15 -53 3 -68 38 -31 96 27 65 65 -15 18 -51 20
-68 3z m62 -13 c3 -9 -4 -21 -20 -32 -22 -14 -27 -14 -35 -2 -10 17 -11 33 -2
42 12 13 51 7 57 -8z"/>
<path d="M1473 303 c-7 -2 -13 -15 -13 -27 0 -50 63 -65 80 -20 16 42 -19 67
-67 47z m55 -20 c-4 -20 -35 -30 -50 -15 -15 15 0 32 28 32 19 0 25 -5 22 -17z"/>
<path d="M1575 240 c-8 -12 20 -24 35 -15 6 3 8 11 5 16 -8 12 -32 12 -40 -1z"/>
<path d="M1492 118 c-19 -19 -14 -28 13 -28 27 0 32 12 12 29 -10 8 -17 7 -25
-1z"/>
</g>
</svg>
